<?xml version="1.0" encoding="utf-8"?>
<!-- Generator: Adobe Illustrator 17.0.2, SVG Export Plug-In . SVG Version: 6.00 Build 0)  -->
<!DOCTYPE svg PUBLIC "-//W3C//DTD SVG 1.1//EN" "http://www.w3.org/Graphics/SVG/1.1/DTD/svg11.dtd">
<svg version="1.1" id="Layer_1" xmlns="http://www.w3.org/2000/svg" xmlns:xlink="http://www.w3.org/1999/xlink" x="0px" y="0px"
	 width="120px" height="25px" viewBox="0 0 120 25" enable-background="new 0 0 120 25" xml:space="preserve">
<g>
	<path fill="#575B5D" d="M3.35,10.487h3.016c2.541,0,3.735,0.65,3.735,2.497c0,2.318-2.241,2.59-3.86,2.59H3.349v-5.087H3.35z
		 M0.221,18.268h6.348c3.333,0,6.674-1.197,6.674-5.039c0-2.265-1.595-4.017-3.814-4.264v-0.05c1.821-0.546,3.067-1.868,3.067-3.865
		c0-3.216-2.741-4.433-5.409-4.433H0.221V18.268z M3.35,3.306h2.597c2.363,0,3.408,0.747,3.408,2.272
		c0,1.322-1.045,2.218-3.139,2.218H3.35V3.306z"/>
	<rect x="15.288" y="0.195" fill="#575B5D" width="2.988" height="18.074"/>
	<path fill="#575B5D" d="M20.274,12.279c0,3.769,2.885,6.283,6.497,6.283c3.609,0,6.501-2.514,6.501-6.283
		c0-3.762-2.892-6.281-6.501-6.281C23.159,5.998,20.274,8.517,20.274,12.279 M23.258,12.279c0-1.87,1.322-3.588,3.513-3.588
		c2.188,0,3.514,1.719,3.514,3.588c0,1.875-1.326,3.593-3.514,3.593C24.58,15.872,23.258,14.155,23.258,12.279"/>
	<path fill="#575B5D" d="M34.616,12.279c0,3.769,2.89,6.283,6.502,6.283c3.603,0,6.495-2.514,6.495-6.283
		c0-3.762-2.892-6.281-6.495-6.281C37.506,5.998,34.616,8.517,34.616,12.279 M37.608,12.279c0-1.87,1.315-3.588,3.511-3.588
		c2.188,0,3.505,1.719,3.505,3.588c0,1.875-1.317,3.593-3.505,3.593C38.923,15.872,37.608,14.155,37.608,12.279"/>
	<path fill="#575B5D" d="M49.439,6.302h2.835v1.863h0.052c0.523-1.115,1.668-2.166,3.658-2.166c1.849,0,3.113,0.725,3.736,2.218
		c0.87-1.522,2.143-2.218,3.933-2.218c3.187,0,4.311,2.269,4.311,5.137v7.133h-2.991v-6.784c0-1.496-0.453-2.793-2.211-2.793
		c-1.876,0-2.571,1.548-2.571,3.089v6.488h-2.985v-7.133c0-1.47-0.599-2.445-2.044-2.445c-1.967,0-2.735,1.447-2.735,3.047v6.531
		h-2.989C49.439,18.269,49.439,6.302,49.439,6.302z"/>
	<path fill="#575B5D" d="M70.385,18.269h2.831v-1.798h0.058c0.868,1.446,2.438,2.096,4.104,2.096c3.682,0,5.898-2.742,5.898-6.287
		c0-3.541-2.366-6.281-5.774-6.281c-2.246,0-3.435,1.05-4.06,1.82h-0.07V0.197h-2.987v18.072H70.385z M80.289,12.279
		c0,1.875-1.318,3.593-3.508,3.593c-2.187,0-3.506-1.718-3.506-3.593c0-1.87,1.319-3.588,3.506-3.588
		C78.972,8.691,80.289,10.41,80.289,12.279"/>
	<path fill="#575B5D" d="M96.724,13.323v-0.816c0-4.165-2.26-6.51-5.596-6.51c-3.609,0-6.496,2.52-6.496,6.281
		c0,3.766,2.887,6.287,6.496,6.287c1.888,0,3.661-0.675,5.051-2.395l-2.137-1.621c-0.749,0.921-1.719,1.621-3.21,1.621
		c-1.669,0-3.013-1.068-3.216-2.849h9.108V13.323z M87.616,11.087c0.225-1.719,1.318-2.845,3.092-2.845
		c1.865,0,3.009,1.099,3.039,2.845H87.616z"/>
	<path fill="#575B5D" d="M98.678,6.302h2.984v1.894h0.052C102.361,6.822,103.684,6,105.248,6c0.373,0,0.727,0.076,1.076,0.173v2.894
		c-0.503-0.127-0.983-0.224-1.45-0.224c-2.812,0-3.211,2.372-3.211,3.016v6.411h-2.984V6.302z"/>
	<path fill="#575B5D" d="M116.539,6.302v1.791h-0.053c-0.863-1.453-2.435-2.095-4.106-2.095c-3.682,0-5.895,2.742-5.895,6.283
		c0,3.389,2.357,6.136,5.945,6.136c1.498,0,3.036-0.577,3.908-1.746h0.052v0.876c0,2.366-0.897,4.011-3.785,4.011
		c-1.67,0-2.911-0.622-4.112-1.717l-1.787,2.439c1.687,1.5,3.705,1.974,5.928,1.974c4.653,0,6.745-2.751,6.745-7.054V6.302H116.539z
		 M112.997,8.691c2.173,0,3.541,1.447,3.541,3.518c0,1.993-1.345,3.518-3.563,3.518c-2.015,0-3.511-1.574-3.511-3.471
		C109.464,10.138,110.913,8.691,112.997,8.691"/>
</g>
</svg>
